# xmcd CD database file
#
# Track frame offsets:
#	150
#	13866
#	29068
#	39627
#	57167
#	69816
#	91835
#	109097
#	124546
#	152443
#	166771
#	185207
#	213002
#	240506
#	258521
#	279972
#	297263
#	321714
#	337120
#	357560
#
# Disc length: 5062 seconds
#
# Revision: 0
# Processed by: cddbd v1.5.2PL0 Copyright (c) Steve Scherf et al.
# Submitted via: CDex 1.51
#
DISCID=2713c414
DTITLE=VA - Der Jazz in Deutschland - Vol 3 CD 9 - Ein frischer Wind
DYEAR=2008
DGENRE=Jazz
TTITLE0=Frankfurt Bridges 
TTITLE1=Frankfurt Blues [Now's The Time]
TTITLE2=Cool March
TTITLE3=Sum 
TTITLE4=Micha's Dilemma 
TTITLE5=Dot's Groovy 
TTITLE6=Short Cut 
TTITLE7=Weekend Vol. III A Night at Tony's
TTITLE8=Soul Twist
TTITLE9=Out Of Nowhere 
TTITLE10=Creole Love Call 
TTITLE11=Blue'n Boogie 
TTITLE12=Rhythm-a-Ning 
TTITLE13=Fünfunddreissig
TTITLE14=Mein Sportheim 
TTITLE15=My Modem's World 
TTITLE16=Blue Herring 
TTITLE17=Luftstand 
TTITLE18=Off Minor 
TTITLE19=Dream Ghost 
EXTD=YEAR: 2008
EXTT0=
EXTT1=
EXTT2=
EXTT3=
EXTT4=
EXTT5=
EXTT6=
EXTT7=
EXTT8=
EXTT9=
EXTT10=
EXTT11=
EXTT12=
EXTT13=
EXTT14=
EXTT15=
EXTT16=
EXTT17=
EXTT18=
EXTT19=
PLAYORDER=
